<svg width="1200" height="800" viewBox="0 0 1200 800" fill="none" xmlns="http://www.w3.org/2000/svg">
  <!-- Background gradient -->
  <defs>
    <linearGradient id="bg-gradient" x1="0%" y1="0%" x2="100%" y2="100%">
      <stop offset="0%" style="stop-color:#6366F1;stop-opacity:0.05" />
      <stop offset="50%" style="stop-color:#10B981;stop-opacity:0.03" />
      <stop offset="100%" style="stop-color:#F59E0B;stop-opacity:0.05" />
    </linearGradient>
    
    <!-- Restaurant pattern -->
    <pattern id="restaurant-pattern" x="0" y="0" width="200" height="200" patternUnits="userSpaceOnUse">
      <!-- Utensils -->
      <g opacity="0.1">
        <!-- Fork -->
        <path d="M20 10L20 40M25 10L25 40M30 10L30 40" stroke="#6366F1" stroke-width="1" stroke-linecap="round"/>
        <!-- Knife -->
        <path d="M40 10L35 40" stroke="#6366F1" stroke-width="1" stroke-linecap="round"/>
        <!-- Plate -->
        <circle cx="60" cy="25" r="8" fill="none" stroke="#10B981" stroke-width="1"/>
        <!-- Cup -->
        <path d="M80 20L80 35L85 35L85 20Z" fill="none" stroke="#F59E0B" stroke-width="1"/>
        <path d="M85 22L88 22" stroke="#F59E0B" stroke-width="1"/>
      </g>
    </pattern>
    
    <!-- Floating elements -->
    <g id="floating-elements">
      <!-- Small circles -->
      <circle cx="50" cy="50" r="2" fill="#6366F1" opacity="0.1"/>
      <circle cx="150" cy="150" r="1.5" fill="#10B981" opacity="0.1"/>
      <circle cx="250" cy="100" r="1" fill="#F59E0B" opacity="0.1"/>
      <circle cx="350" cy="200" r="2.5" fill="#6366F1" opacity="0.1"/>
      <circle cx="450" cy="80" r="1.8" fill="#10B981" opacity="0.1"/>
      <circle cx="550" cy="180" r="1.2" fill="#F59E0B" opacity="0.1"/>
    </g>
  </defs>
  
  <!-- Background -->
  <rect width="100%" height="100%" fill="url(#bg-gradient)"/>
  
  <!-- Pattern overlay -->
  <rect width="100%" height="100%" fill="url(#restaurant-pattern)"/>
  
  <!-- Floating elements -->
  <use href="#floating-elements" x="0" y="0"/>
  <use href="#floating-elements" x="400" y="200"/>
  <use href="#floating-elements" x="800" y="100"/>
  
  <!-- Decorative shapes -->
  <g opacity="0.05">
    <!-- Large circles -->
    <circle cx="100" cy="100" r="80" fill="#6366F1"/>
    <circle cx="1100" cy="700" r="120" fill="#10B981"/>
    <circle cx="1000" cy="200" r="60" fill="#F59E0B"/>
    
    <!-- Abstract shapes -->
    <path d="M200 300C250 250 300 300 350 250C400 200 450 250 500 200" stroke="#6366F1" stroke-width="2" fill="none"/>
    <path d="M700 500C750 450 800 500 850 450C900 400 950 450 1000 400" stroke="#10B981" stroke-width="2" fill="none"/>
  </g>
</svg>
