<svg width="80" height="80" viewBox="0 0 80 80" fill="none" xmlns="http://www.w3.org/2000/svg">
  <!-- Definitions -->
  <defs>
    <!-- Gradient for the main symbol -->
    <linearGradient id="symbolGradient" x1="0%" y1="0%" x2="100%" y2="100%">
      <stop offset="0%" style="stop-color:#1E3A8A;stop-opacity:1" />
      <stop offset="100%" style="stop-color:#1E40AF;stop-opacity:1" />
    </linearGradient>
    
    <!-- Gradient for accent elements -->
    <linearGradient id="accentGradient" x1="0%" y1="0%" x2="100%" y2="100%">
      <stop offset="0%" style="stop-color:#F97316;stop-opacity:1" />
      <stop offset="100%" style="stop-color:#EA580C;stop-opacity:1" />
    </linearGradient>
    
    <!-- Drop shadow filter -->
    <filter id="dropShadow" x="-20%" y="-20%" width="140%" height="140%">
      <feDropShadow dx="0" dy="4" stdDeviation="8" flood-color="#1E3A8A" flood-opacity="0.15"/>
    </filter>
  </defs>
  
  <!-- Background circle with gradient -->
  <circle cx="40" cy="40" r="35" fill="url(#symbolGradient)" filter="url(#dropShadow)"/>
  
  <!-- Digital interface frame -->
  <rect x="20" y="20" width="40" height="40" rx="8" fill="none" stroke="white" stroke-width="2" opacity="0.3"/>
  
  <!-- Stylized fork (digital/tech style) -->
  <g stroke="white" stroke-width="2.5" stroke-linecap="round" stroke-linejoin="round">
    <!-- Main fork handle -->
    <path d="M28 18L28 48" opacity="0.9"/>
    <path d="M35 18L35 48" opacity="0.9"/>
    <path d="M42 18L42 48" opacity="0.9"/>
    
    <!-- Fork tines with tech accent -->
    <path d="M28 18L25 15" stroke="#F97316" stroke-width="2"/>
    <path d="M35 18L35 15" stroke="#F97316" stroke-width="2"/>
    <path d="M42 18L45 15" stroke="#F97316" stroke-width="2"/>
  </g>
  
  <!-- Digital interface elements -->
  <g opacity="0.8">
    <!-- Connection dots -->
    <circle cx="50" cy="25" r="2" fill="#F97316"/>
    <circle cx="55" cy="30" r="1.5" fill="#F97316"/>
    <circle cx="52" cy="35" r="1" fill="#F97316"/>
    
    <!-- Digital lines -->
    <path d="M50 25L55 30" stroke="#F97316" stroke-width="1" stroke-linecap="round"/>
    <path d="M55 30L52 35" stroke="#F97316" stroke-width="1" stroke-linecap="round"/>
  </g>
  
  <!-- Tech accent line -->
  <path d="M18 52L62 52" stroke="#F97316" stroke-width="2.5" stroke-linecap="round" opacity="0.7"/>
  
  <!-- Corner accents -->
  <path d="M20 20L25 20L25 25" stroke="#F97316" stroke-width="2" stroke-linecap="round"/>
  <path d="M55 20L60 20L60 25" stroke="#F97316" stroke-width="2" stroke-linecap="round"/>
</svg>
